<mxfile host="app.diagrams.net" modified="2023-09-14T00:36:44.090Z" agent="Mozilla/5.0 (Windows NT 10.0; Win64; x64) AppleWebKit/537.36 (KHTML, like Gecko) Chrome/115.0.0.0 Safari/537.36 OPR/101.0.0.0" etag="2H_Oaqcgtj4NAgDtqQxj" version="21.7.2" type="device">
  <diagram name="Página-1" id="ZKmiamIRYfWgfsldtudF">
    <mxGraphModel dx="1678" dy="892" grid="1" gridSize="10" guides="1" tooltips="1" connect="1" arrows="1" fold="1" page="1" pageScale="1" pageWidth="1920" pageHeight="1200" math="0" shadow="0">
      <root>
        <mxCell id="0" />
        <mxCell id="1" parent="0" />
        <mxCell id="aqb9V1pjNic0fwWnrqPl-53" style="edgeStyle=orthogonalEdgeStyle;rounded=0;orthogonalLoop=1;jettySize=auto;html=1;" edge="1" parent="1" source="aqb9V1pjNic0fwWnrqPl-44" target="aqb9V1pjNic0fwWnrqPl-45">
          <mxGeometry relative="1" as="geometry" />
        </mxCell>
        <mxCell id="aqb9V1pjNic0fwWnrqPl-44" value="" style="ellipse;html=1;shape=endState;" vertex="1" parent="1">
          <mxGeometry x="110" y="70" width="30" height="30" as="geometry" />
        </mxCell>
        <mxCell id="aqb9V1pjNic0fwWnrqPl-54" style="edgeStyle=orthogonalEdgeStyle;rounded=0;orthogonalLoop=1;jettySize=auto;html=1;" edge="1" parent="1" source="aqb9V1pjNic0fwWnrqPl-45" target="aqb9V1pjNic0fwWnrqPl-47">
          <mxGeometry relative="1" as="geometry" />
        </mxCell>
        <mxCell id="aqb9V1pjNic0fwWnrqPl-45" value="escolher opção de devolução no sistema" style="rounded=1;whiteSpace=wrap;html=1;" vertex="1" parent="1">
          <mxGeometry x="65" y="180" width="120" height="60" as="geometry" />
        </mxCell>
        <mxCell id="aqb9V1pjNic0fwWnrqPl-55" style="edgeStyle=orthogonalEdgeStyle;rounded=0;orthogonalLoop=1;jettySize=auto;html=1;entryX=0;entryY=0.5;entryDx=0;entryDy=0;" edge="1" parent="1" source="aqb9V1pjNic0fwWnrqPl-47" target="aqb9V1pjNic0fwWnrqPl-50">
          <mxGeometry relative="1" as="geometry" />
        </mxCell>
        <mxCell id="aqb9V1pjNic0fwWnrqPl-47" value="inserir ISBN do livro" style="rounded=1;whiteSpace=wrap;html=1;" vertex="1" parent="1">
          <mxGeometry x="65" y="320" width="120" height="60" as="geometry" />
        </mxCell>
        <mxCell id="aqb9V1pjNic0fwWnrqPl-60" style="edgeStyle=orthogonalEdgeStyle;rounded=0;orthogonalLoop=1;jettySize=auto;html=1;entryX=0.5;entryY=1;entryDx=0;entryDy=0;" edge="1" parent="1" source="aqb9V1pjNic0fwWnrqPl-48" target="aqb9V1pjNic0fwWnrqPl-49">
          <mxGeometry relative="1" as="geometry">
            <Array as="points">
              <mxPoint x="30" y="520" />
              <mxPoint x="30" y="270" />
              <mxPoint x="405" y="270" />
            </Array>
          </mxGeometry>
        </mxCell>
        <mxCell id="aqb9V1pjNic0fwWnrqPl-48" value="retornar mensagem" style="rounded=1;whiteSpace=wrap;html=1;" vertex="1" parent="1">
          <mxGeometry x="80" y="490" width="120" height="60" as="geometry" />
        </mxCell>
        <mxCell id="aqb9V1pjNic0fwWnrqPl-64" style="edgeStyle=orthogonalEdgeStyle;rounded=0;orthogonalLoop=1;jettySize=auto;html=1;entryX=0;entryY=0.5;entryDx=0;entryDy=0;" edge="1" parent="1" source="aqb9V1pjNic0fwWnrqPl-49" target="aqb9V1pjNic0fwWnrqPl-63">
          <mxGeometry relative="1" as="geometry" />
        </mxCell>
        <mxCell id="aqb9V1pjNic0fwWnrqPl-70" style="edgeStyle=orthogonalEdgeStyle;rounded=0;orthogonalLoop=1;jettySize=auto;html=1;" edge="1" parent="1" source="aqb9V1pjNic0fwWnrqPl-49" target="aqb9V1pjNic0fwWnrqPl-45">
          <mxGeometry relative="1" as="geometry" />
        </mxCell>
        <mxCell id="aqb9V1pjNic0fwWnrqPl-49" value="tentar novamente?" style="rhombus;whiteSpace=wrap;html=1;" vertex="1" parent="1">
          <mxGeometry x="340" y="180" width="130" height="70" as="geometry" />
        </mxCell>
        <mxCell id="aqb9V1pjNic0fwWnrqPl-56" style="edgeStyle=orthogonalEdgeStyle;rounded=0;orthogonalLoop=1;jettySize=auto;html=1;entryX=0.5;entryY=0;entryDx=0;entryDy=0;" edge="1" parent="1" source="aqb9V1pjNic0fwWnrqPl-50" target="aqb9V1pjNic0fwWnrqPl-51">
          <mxGeometry relative="1" as="geometry" />
        </mxCell>
        <mxCell id="aqb9V1pjNic0fwWnrqPl-57" style="edgeStyle=orthogonalEdgeStyle;rounded=0;orthogonalLoop=1;jettySize=auto;html=1;entryX=1;entryY=0.5;entryDx=0;entryDy=0;" edge="1" parent="1" source="aqb9V1pjNic0fwWnrqPl-50" target="aqb9V1pjNic0fwWnrqPl-48">
          <mxGeometry relative="1" as="geometry">
            <Array as="points">
              <mxPoint x="320" y="520" />
            </Array>
          </mxGeometry>
        </mxCell>
        <mxCell id="aqb9V1pjNic0fwWnrqPl-50" value="livro disponivel?" style="rhombus;whiteSpace=wrap;html=1;" vertex="1" parent="1">
          <mxGeometry x="250" y="310" width="140" height="80" as="geometry" />
        </mxCell>
        <mxCell id="aqb9V1pjNic0fwWnrqPl-62" style="edgeStyle=orthogonalEdgeStyle;rounded=0;orthogonalLoop=1;jettySize=auto;html=1;entryX=0.5;entryY=1;entryDx=0;entryDy=0;" edge="1" parent="1" source="aqb9V1pjNic0fwWnrqPl-51" target="aqb9V1pjNic0fwWnrqPl-52">
          <mxGeometry relative="1" as="geometry">
            <mxPoint x="830" y="480" as="targetPoint" />
          </mxGeometry>
        </mxCell>
        <mxCell id="aqb9V1pjNic0fwWnrqPl-51" value="realizar devolução" style="rounded=1;whiteSpace=wrap;html=1;" vertex="1" parent="1">
          <mxGeometry x="400" y="490" width="120" height="60" as="geometry" />
        </mxCell>
        <mxCell id="aqb9V1pjNic0fwWnrqPl-65" style="edgeStyle=orthogonalEdgeStyle;rounded=0;orthogonalLoop=1;jettySize=auto;html=1;entryX=1;entryY=0.5;entryDx=0;entryDy=0;" edge="1" parent="1" source="aqb9V1pjNic0fwWnrqPl-52" target="aqb9V1pjNic0fwWnrqPl-63">
          <mxGeometry relative="1" as="geometry" />
        </mxCell>
        <mxCell id="aqb9V1pjNic0fwWnrqPl-52" value="gravar no historico" style="rounded=1;whiteSpace=wrap;html=1;" vertex="1" parent="1">
          <mxGeometry x="590" y="410" width="120" height="60" as="geometry" />
        </mxCell>
        <mxCell id="aqb9V1pjNic0fwWnrqPl-63" value="" style="ellipse;html=1;shape=endState;" vertex="1" parent="1">
          <mxGeometry x="580" y="260" width="30" height="30" as="geometry" />
        </mxCell>
        <mxCell id="aqb9V1pjNic0fwWnrqPl-66" value="s" style="text;html=1;align=center;verticalAlign=middle;resizable=0;points=[];autosize=1;strokeColor=none;fillColor=none;" vertex="1" parent="1">
          <mxGeometry x="390" y="328" width="30" height="30" as="geometry" />
        </mxCell>
        <mxCell id="aqb9V1pjNic0fwWnrqPl-67" value="n" style="text;html=1;align=center;verticalAlign=middle;resizable=0;points=[];autosize=1;strokeColor=none;fillColor=none;" vertex="1" parent="1">
          <mxGeometry x="290" y="390" width="30" height="30" as="geometry" />
        </mxCell>
        <mxCell id="aqb9V1pjNic0fwWnrqPl-71" value="s" style="text;html=1;align=center;verticalAlign=middle;resizable=0;points=[];autosize=1;strokeColor=none;fillColor=none;" vertex="1" parent="1">
          <mxGeometry x="305" y="188" width="30" height="30" as="geometry" />
        </mxCell>
        <mxCell id="aqb9V1pjNic0fwWnrqPl-72" value="n" style="text;html=1;align=center;verticalAlign=middle;resizable=0;points=[];autosize=1;strokeColor=none;fillColor=none;" vertex="1" parent="1">
          <mxGeometry x="465" y="188" width="30" height="30" as="geometry" />
        </mxCell>
      </root>
    </mxGraphModel>
  </diagram>
</mxfile>
